<?xml version="1.0" encoding="UTF-8"?>
<score-partwise version="3.1">
  <work>
    <work-title>Kaeru</work-title>
    </work>
  <identification>
    <encoding>
      <software>MuseScore 2.3.1</software>
      <encoding-date>2018-07-26</encoding-date>
      <supports element="accidental" type="yes"/>
      <supports element="beam" type="yes"/>
      <supports element="print" attribute="new-page" type="yes" value="yes"/>
      <supports element="print" attribute="new-system" type="yes" value="yes"/>
      <supports element="stem" type="yes"/>
      </encoding>
    </identification>
  <defaults>
    <scaling>
      <millimeters>7.05556</millimeters>
      <tenths>40</tenths>
      </scaling>
    <page-layout>
      <page-height>1683.36</page-height>
      <page-width>1190.88</page-width>
      <page-margins type="even">
        <left-margin>56.6929</left-margin>
        <right-margin>56.6929</right-margin>
        <top-margin>56.6929</top-margin>
        <bottom-margin>113.386</bottom-margin>
        </page-margins>
      <page-margins type="odd">
        <left-margin>56.6929</left-margin>
        <right-margin>56.6929</right-margin>
        <top-margin>56.6929</top-margin>
        <bottom-margin>113.386</bottom-margin>
        </page-margins>
      </page-layout>
    <word-font font-family="FreeSerif" font-size="10"/>
    <lyric-font font-family="FreeSerif" font-size="11"/>
    </defaults>
  <credit page="1">
    <credit-words default-x="595.44" default-y="1626.67" justify="center" valign="top" font-size="24">Kaeru</credit-words>
    </credit>
  <part-list>
    <score-part id="P1">
      <part-name>Piano</part-name>
      <part-abbreviation>Pno.</part-abbreviation>
      <score-instrument id="P1-I1">
        <instrument-name>Piano</instrument-name>
        </score-instrument>
      <midi-device id="P1-I1" port="1"></midi-device>
      <midi-instrument id="P1-I1">
        <midi-channel>1</midi-channel>
        <midi-program>1</midi-program>
        <volume>78.7402</volume>
        <pan>0</pan>
        </midi-instrument>
      </score-part>
    <score-part id="P2">
      <part-name>a</part-name>
      <part-abbreviation>D. Set</part-abbreviation>
      <score-instrument id="P2-I36">
        <instrument-name>Acoustic Bass Drum</instrument-name>
        </score-instrument>
      <score-instrument id="P2-I37">
        <instrument-name>Bass Drum 1</instrument-name>
        </score-instrument>
      <score-instrument id="P2-I38">
        <instrument-name>Side Stick</instrument-name>
        </score-instrument>
      <score-instrument id="P2-I39">
        <instrument-name>Acoustic Snare</instrument-name>
        </score-instrument>
      <score-instrument id="P2-I41">
        <instrument-name>Electric Snare</instrument-name>
        </score-instrument>
      <score-instrument id="P2-I42">
        <instrument-name>Low Floor Tom</instrument-name>
        </score-instrument>
      <score-instrument id="P2-I43">
        <instrument-name>Closed Hi-Hat</instrument-name>
        </score-instrument>
      <score-instrument id="P2-I44">
        <instrument-name>High Floor Tom</instrument-name>
        </score-instrument>
      <score-instrument id="P2-I45">
        <instrument-name>Pedal Hi-Hat</instrument-name>
        </score-instrument>
      <score-instrument id="P2-I46">
        <instrument-name>Low Tom</instrument-name>
        </score-instrument>
      <score-instrument id="P2-I47">
        <instrument-name>Open Hi-Hat</instrument-name>
        </score-instrument>
      <score-instrument id="P2-I48">
        <instrument-name>Low-Mid Tom</instrument-name>
        </score-instrument>
      <score-instrument id="P2-I49">
        <instrument-name>Hi-Mid Tom</instrument-name>
        </score-instrument>
      <score-instrument id="P2-I50">
        <instrument-name>Crash Cymbal 1</instrument-name>
        </score-instrument>
      <score-instrument id="P2-I51">
        <instrument-name>High Tom</instrument-name>
        </score-instrument>
      <score-instrument id="P2-I52">
        <instrument-name>Ride Cymbal 1</instrument-name>
        </score-instrument>
      <score-instrument id="P2-I53">
        <instrument-name>Chinese Cymbal</instrument-name>
        </score-instrument>
      <score-instrument id="P2-I54">
        <instrument-name>Ride Bell</instrument-name>
        </score-instrument>
      <score-instrument id="P2-I55">
        <instrument-name>Tambourine</instrument-name>
        </score-instrument>
      <score-instrument id="P2-I56">
        <instrument-name>Splash Cymbal</instrument-name>
        </score-instrument>
      <score-instrument id="P2-I57">
        <instrument-name>Cowbell</instrument-name>
        </score-instrument>
      <score-instrument id="P2-I58">
        <instrument-name>Crash Cymbal 2</instrument-name>
        </score-instrument>
      <score-instrument id="P2-I60">
        <instrument-name>Ride Cymbal 2</instrument-name>
        </score-instrument>
      <score-instrument id="P2-I64">
        <instrument-name>Open Hi Conga</instrument-name>
        </score-instrument>
      <score-instrument id="P2-I65">
        <instrument-name>Low Conga</instrument-name>
        </score-instrument>
      <midi-device port="1"></midi-device>
      <midi-instrument id="P2-I36">
        <midi-channel>10</midi-channel>
        <midi-program>1</midi-program>
        <midi-unpitched>36</midi-unpitched>
        <volume>78.7402</volume>
        <pan>0</pan>
        </midi-instrument>
      <midi-instrument id="P2-I37">
        <midi-channel>10</midi-channel>
        <midi-program>1</midi-program>
        <midi-unpitched>37</midi-unpitched>
        <volume>78.7402</volume>
        <pan>0</pan>
        </midi-instrument>
      <midi-instrument id="P2-I38">
        <midi-channel>10</midi-channel>
        <midi-program>1</midi-program>
        <midi-unpitched>38</midi-unpitched>
        <volume>78.7402</volume>
        <pan>0</pan>
        </midi-instrument>
      <midi-instrument id="P2-I39">
        <midi-channel>10</midi-channel>
        <midi-program>1</midi-program>
        <midi-unpitched>39</midi-unpitched>
        <volume>78.7402</volume>
        <pan>0</pan>
        </midi-instrument>
      <midi-instrument id="P2-I41">
        <midi-channel>10</midi-channel>
        <midi-program>1</midi-program>
        <midi-unpitched>41</midi-unpitched>
        <volume>78.7402</volume>
        <pan>0</pan>
        </midi-instrument>
      <midi-instrument id="P2-I42">
        <midi-channel>10</midi-channel>
        <midi-program>1</midi-program>
        <midi-unpitched>42</midi-unpitched>
        <volume>78.7402</volume>
        <pan>0</pan>
        </midi-instrument>
      <midi-instrument id="P2-I43">
        <midi-channel>10</midi-channel>
        <midi-program>1</midi-program>
        <midi-unpitched>43</midi-unpitched>
        <volume>78.7402</volume>
        <pan>0</pan>
        </midi-instrument>
      <midi-instrument id="P2-I44">
        <midi-channel>10</midi-channel>
        <midi-program>1</midi-program>
        <midi-unpitched>44</midi-unpitched>
        <volume>78.7402</volume>
        <pan>0</pan>
        </midi-instrument>
      <midi-instrument id="P2-I45">
        <midi-channel>10</midi-channel>
        <midi-program>1</midi-program>
        <midi-unpitched>45</midi-unpitched>
        <volume>78.7402</volume>
        <pan>0</pan>
        </midi-instrument>
      <midi-instrument id="P2-I46">
        <midi-channel>10</midi-channel>
        <midi-program>1</midi-program>
        <midi-unpitched>46</midi-unpitched>
        <volume>78.7402</volume>
        <pan>0</pan>
        </midi-instrument>
      <midi-instrument id="P2-I47">
        <midi-channel>10</midi-channel>
        <midi-program>1</midi-program>
        <midi-unpitched>47</midi-unpitched>
        <volume>78.7402</volume>
        <pan>0</pan>
        </midi-instrument>
      <midi-instrument id="P2-I48">
        <midi-channel>10</midi-channel>
        <midi-program>1</midi-program>
        <midi-unpitched>48</midi-unpitched>
        <volume>78.7402</volume>
        <pan>0</pan>
        </midi-instrument>
      <midi-instrument id="P2-I49">
        <midi-channel>10</midi-channel>
        <midi-program>1</midi-program>
        <midi-unpitched>49</midi-unpitched>
        <volume>78.7402</volume>
        <pan>0</pan>
        </midi-instrument>
      <midi-instrument id="P2-I50">
        <midi-channel>10</midi-channel>
        <midi-program>1</midi-program>
        <midi-unpitched>50</midi-unpitched>
        <volume>78.7402</volume>
        <pan>0</pan>
        </midi-instrument>
      <midi-instrument id="P2-I51">
        <midi-channel>10</midi-channel>
        <midi-program>1</midi-program>
        <midi-unpitched>51</midi-unpitched>
        <volume>78.7402</volume>
        <pan>0</pan>
        </midi-instrument>
      <midi-instrument id="P2-I52">
        <midi-channel>10</midi-channel>
        <midi-program>1</midi-program>
        <midi-unpitched>52</midi-unpitched>
        <volume>78.7402</volume>
        <pan>0</pan>
        </midi-instrument>
      <midi-instrument id="P2-I53">
        <midi-channel>10</midi-channel>
        <midi-program>1</midi-program>
        <midi-unpitched>53</midi-unpitched>
        <volume>78.7402</volume>
        <pan>0</pan>
        </midi-instrument>
      <midi-instrument id="P2-I54">
        <midi-channel>10</midi-channel>
        <midi-program>1</midi-program>
        <midi-unpitched>54</midi-unpitched>
        <volume>78.7402</volume>
        <pan>0</pan>
        </midi-instrument>
      <midi-instrument id="P2-I55">
        <midi-channel>10</midi-channel>
        <midi-program>1</midi-program>
        <midi-unpitched>55</midi-unpitched>
        <volume>78.7402</volume>
        <pan>0</pan>
        </midi-instrument>
      <midi-instrument id="P2-I56">
        <midi-channel>10</midi-channel>
        <midi-program>1</midi-program>
        <midi-unpitched>56</midi-unpitched>
        <volume>78.7402</volume>
        <pan>0</pan>
        </midi-instrument>
      <midi-instrument id="P2-I57">
        <midi-channel>10</midi-channel>
        <midi-program>1</midi-program>
        <midi-unpitched>57</midi-unpitched>
        <volume>78.7402</volume>
        <pan>0</pan>
        </midi-instrument>
      <midi-instrument id="P2-I58">
        <midi-channel>10</midi-channel>
        <midi-program>1</midi-program>
        <midi-unpitched>58</midi-unpitched>
        <volume>78.7402</volume>
        <pan>0</pan>
        </midi-instrument>
      <midi-instrument id="P2-I60">
        <midi-channel>10</midi-channel>
        <midi-program>1</midi-program>
        <midi-unpitched>60</midi-unpitched>
        <volume>78.7402</volume>
        <pan>0</pan>
        </midi-instrument>
      <midi-instrument id="P2-I64">
        <midi-channel>10</midi-channel>
        <midi-program>1</midi-program>
        <midi-unpitched>64</midi-unpitched>
        <volume>78.7402</volume>
        <pan>0</pan>
        </midi-instrument>
      <midi-instrument id="P2-I65">
        <midi-channel>10</midi-channel>
        <midi-program>1</midi-program>
        <midi-unpitched>65</midi-unpitched>
        <volume>78.7402</volume>
        <pan>0</pan>
        </midi-instrument>
      </score-part>
    <score-part id="P3">
      <part-name>part1</part-name>
      <part-abbreviation>Sta.</part-abbreviation>
      <score-instrument id="P3-I36">
        <instrument-name>Bass Drum 2</instrument-name>
        </score-instrument>
      <midi-device port="2"></midi-device>
      <midi-instrument id="P3-I36">
        <midi-channel>10</midi-channel>
        <midi-program>1</midi-program>
        <midi-unpitched>36</midi-unpitched>
        <volume>78.7402</volume>
        <pan>0</pan>
        </midi-instrument>
      </score-part>
    <score-part id="P4">
      <part-name>part2</part-name>
      <part-abbreviation>Sla.</part-abbreviation>
      <score-instrument id="P4-I42">
        <instrument-name>Low Tom 2</instrument-name>
        </score-instrument>
      <midi-device port="3"></midi-device>
      <midi-instrument id="P4-I42">
        <midi-channel>10</midi-channel>
        <midi-program>1</midi-program>
        <midi-unpitched>42</midi-unpitched>
        <volume>78.7402</volume>
        <pan>0</pan>
        </midi-instrument>
      </score-part>
    <score-part id="P5">
      <part-name>part3</part-name>
      <part-abbreviation>Hd. Clp.</part-abbreviation>
      <score-instrument id="P5-I40">
        <instrument-name>Hand Clap</instrument-name>
        </score-instrument>
      <midi-device port="4"></midi-device>
      <midi-instrument id="P5-I40">
        <midi-channel>10</midi-channel>
        <midi-program>1</midi-program>
        <midi-unpitched>40</midi-unpitched>
        <volume>78.7402</volume>
        <pan>0</pan>
        </midi-instrument>
      </score-part>
    </part-list>
  <part id="P1">
    <measure number="1" width="193.10">
      <print>
        <system-layout>
          <system-margins>
            <left-margin>113.98</left-margin>
            <right-margin>0.00</right-margin>
            </system-margins>
          <top-system-distance>170.00</top-system-distance>
          </system-layout>
        </print>
      <attributes>
        <divisions>4</divisions>
        <key>
          <fifths>0</fifths>
          </key>
        <time>
          <beats>4</beats>
          <beat-type>4</beat-type>
          </time>
        <clef>
          <sign>G</sign>
          <line>2</line>
          </clef>
        </attributes>
      <direction placement="above">
        <direction-type>
          <metronome parentheses="no" default-x="-34.44" default-y="40.00">
            <beat-unit>quarter</beat-unit>
            <per-minute>120</per-minute>
            </metronome>
          </direction-type>
        <sound tempo="120"/>
        </direction>
      <note>
        <rest/>
        <duration>4</duration>
        <voice>1</voice>
        <type>quarter</type>
        </note>
      <note>
        <rest/>
        <duration>4</duration>
        <voice>1</voice>
        <type>quarter</type>
        </note>
      <note>
        <rest/>
        <duration>4</duration>
        <voice>1</voice>
        <type>quarter</type>
        </note>
      <note>
        <rest/>
        <duration>4</duration>
        <voice>1</voice>
        <type>quarter</type>
        </note>
      </measure>
    <measure number="2" width="138.71">
      <note default-x="12.94" default-y="-50.00">
        <pitch>
          <step>C</step>
          <octave>4</octave>
          </pitch>
        <duration>4</duration>
        <voice>1</voice>
        <type>quarter</type>
        <stem>up</stem>
        </note>
      <note default-x="43.98" default-y="-45.00">
        <pitch>
          <step>D</step>
          <octave>4</octave>
          </pitch>
        <duration>4</duration>
        <voice>1</voice>
        <type>quarter</type>
        <stem>up</stem>
        </note>
      <note default-x="75.02" default-y="-40.00">
        <pitch>
          <step>E</step>
          <octave>4</octave>
          </pitch>
        <duration>4</duration>
        <voice>1</voice>
        <type>quarter</type>
        <stem>up</stem>
        </note>
      <note default-x="106.06" default-y="-35.00">
        <pitch>
          <step>F</step>
          <octave>4</octave>
          </pitch>
        <duration>4</duration>
        <voice>1</voice>
        <type>quarter</type>
        <stem>up</stem>
        </note>
      </measure>
    <measure number="3" width="135.27">
      <note default-x="12.94" default-y="-40.00">
        <pitch>
          <step>E</step>
          <octave>4</octave>
          </pitch>
        <duration>4</duration>
        <voice>1</voice>
        <type>quarter</type>
        <stem>up</stem>
        </note>
      <note default-x="43.12" default-y="-45.00">
        <pitch>
          <step>D</step>
          <octave>4</octave>
          </pitch>
        <duration>4</duration>
        <voice>1</voice>
        <type>quarter</type>
        <stem>up</stem>
        </note>
      <note default-x="73.30" default-y="-50.00">
        <pitch>
          <step>C</step>
          <octave>4</octave>
          </pitch>
        <duration>4</duration>
        <voice>1</voice>
        <type>quarter</type>
        <stem>up</stem>
        </note>
      <note>
        <rest/>
        <duration>4</duration>
        <voice>1</voice>
        <type>quarter</type>
        </note>
      </measure>
    <measure number="4" width="170.04">
      <note default-x="12.94" default-y="-40.00">
        <pitch>
          <step>E</step>
          <octave>4</octave>
          </pitch>
        <duration>4</duration>
        <voice>1</voice>
        <type>quarter</type>
        <stem>up</stem>
        </note>
      <note default-x="47.09" default-y="-35.00">
        <pitch>
          <step>F</step>
          <octave>4</octave>
          </pitch>
        <duration>4</duration>
        <voice>1</voice>
        <type>quarter</type>
        <stem>up</stem>
        </note>
      <note default-x="89.78" default-y="-30.00">
        <pitch>
          <step>G</step>
          <octave>4</octave>
          </pitch>
        <duration>4</duration>
        <voice>1</voice>
        <type>quarter</type>
        <stem>up</stem>
        </note>
      <note default-x="123.93" default-y="-25.00">
        <pitch>
          <step>A</step>
          <octave>4</octave>
          </pitch>
        <duration>4</duration>
        <voice>1</voice>
        <type>quarter</type>
        <stem>up</stem>
        </note>
      </measure>
    <measure number="5" width="166.60">
      <note default-x="12.94" default-y="-30.00">
        <pitch>
          <step>G</step>
          <octave>4</octave>
          </pitch>
        <duration>4</duration>
        <voice>1</voice>
        <type>quarter</type>
        <stem>up</stem>
        </note>
      <note default-x="45.08" default-y="-35.00">
        <pitch>
          <step>F</step>
          <octave>4</octave>
          </pitch>
        <duration>4</duration>
        <voice>1</voice>
        <type>quarter</type>
        <stem>up</stem>
        </note>
      <note default-x="100.72" default-y="-40.00">
        <pitch>
          <step>E</step>
          <octave>4</octave>
          </pitch>
        <duration>4</duration>
        <voice>1</voice>
        <type>quarter</type>
        <stem>up</stem>
        </note>
      <note>
        <rest/>
        <duration>4</duration>
        <voice>1</voice>
        <type>quarter</type>
        </note>
      </measure>
    <measure number="6" width="159.80">
      <note default-x="12.94" default-y="-50.00">
        <pitch>
          <step>C</step>
          <octave>4</octave>
          </pitch>
        <duration>4</duration>
        <voice>1</voice>
        <type>quarter</type>
        <stem>up</stem>
        </note>
      <note>
        <rest/>
        <duration>4</duration>
        <voice>1</voice>
        <type>quarter</type>
        </note>
      <note default-x="92.00" default-y="-50.00">
        <pitch>
          <step>C</step>
          <octave>4</octave>
          </pitch>
        <duration>4</duration>
        <voice>1</voice>
        <type>quarter</type>
        <stem>up</stem>
        </note>
      <note>
        <rest/>
        <duration>4</duration>
        <voice>1</voice>
        <type>quarter</type>
        </note>
      </measure>
    <measure number="7" width="329.57">
      <print new-system="yes">
        <system-layout>
          <system-margins>
            <left-margin>91.40</left-margin>
            <right-margin>0.00</right-margin>
            </system-margins>
          <system-distance>150.00</system-distance>
          </system-layout>
        </print>
      <note default-x="53.11" default-y="-50.00">
        <pitch>
          <step>C</step>
          <octave>4</octave>
          </pitch>
        <duration>4</duration>
        <voice>1</voice>
        <type>quarter</type>
        <stem>up</stem>
        </note>
      <note>
        <rest/>
        <duration>4</duration>
        <voice>1</voice>
        <type>quarter</type>
        </note>
      <note default-x="198.62" default-y="-50.00">
        <pitch>
          <step>C</step>
          <octave>4</octave>
          </pitch>
        <duration>4</duration>
        <voice>1</voice>
        <type>quarter</type>
        <stem>up</stem>
        </note>
      <note>
        <rest/>
        <duration>4</duration>
        <voice>1</voice>
        <type>quarter</type>
        </note>
      </measure>
    <measure number="8" width="373.58">
      <note default-x="12.94" default-y="-50.00">
        <pitch>
          <step>C</step>
          <octave>4</octave>
          </pitch>
        <duration>2</duration>
        <voice>1</voice>
        <type>eighth</type>
        <stem>up</stem>
        <beam number="1">begin</beam>
        </note>
      <note default-x="55.18" default-y="-50.00">
        <pitch>
          <step>C</step>
          <octave>4</octave>
          </pitch>
        <duration>2</duration>
        <voice>1</voice>
        <type>eighth</type>
        <stem>up</stem>
        <beam number="1">continue</beam>
        </note>
      <note default-x="107.98" default-y="-45.00">
        <pitch>
          <step>D</step>
          <octave>4</octave>
          </pitch>
        <duration>2</duration>
        <voice>1</voice>
        <type>eighth</type>
        <stem>up</stem>
        <beam number="1">continue</beam>
        </note>
      <note default-x="150.22" default-y="-45.00">
        <pitch>
          <step>D</step>
          <octave>4</octave>
          </pitch>
        <duration>2</duration>
        <voice>1</voice>
        <type>eighth</type>
        <stem>up</stem>
        <beam number="1">end</beam>
        </note>
      <note default-x="192.46" default-y="-40.00">
        <pitch>
          <step>E</step>
          <octave>4</octave>
          </pitch>
        <duration>2</duration>
        <voice>1</voice>
        <type>eighth</type>
        <stem>up</stem>
        <beam number="1">begin</beam>
        </note>
      <note default-x="234.70" default-y="-40.00">
        <pitch>
          <step>E</step>
          <octave>4</octave>
          </pitch>
        <duration>2</duration>
        <voice>1</voice>
        <type>eighth</type>
        <stem>up</stem>
        <beam number="1">continue</beam>
        </note>
      <note default-x="287.50" default-y="-35.00">
        <pitch>
          <step>F</step>
          <octave>4</octave>
          </pitch>
        <duration>2</duration>
        <voice>1</voice>
        <type>eighth</type>
        <stem>up</stem>
        <beam number="1">continue</beam>
        </note>
      <note default-x="329.74" default-y="-35.00">
        <pitch>
          <step>F</step>
          <octave>4</octave>
          </pitch>
        <duration>2</duration>
        <voice>1</voice>
        <type>eighth</type>
        <stem>up</stem>
        <beam number="1">end</beam>
        </note>
      </measure>
    <measure number="9" width="282.94">
      <note default-x="12.94" default-y="-40.00">
        <pitch>
          <step>E</step>
          <octave>4</octave>
          </pitch>
        <duration>4</duration>
        <voice>1</voice>
        <type>quarter</type>
        <stem>up</stem>
        </note>
      <note default-x="77.79" default-y="-45.00">
        <pitch>
          <step>D</step>
          <octave>4</octave>
          </pitch>
        <duration>4</duration>
        <voice>1</voice>
        <type>quarter</type>
        <stem>up</stem>
        </note>
      <note default-x="142.64" default-y="-50.00">
        <pitch>
          <step>C</step>
          <octave>4</octave>
          </pitch>
        <duration>4</duration>
        <voice>1</voice>
        <type>quarter</type>
        <stem>up</stem>
        </note>
      <note>
        <rest/>
        <duration>4</duration>
        <voice>1</voice>
        <type>quarter</type>
        </note>
      <barline location="right">
        <bar-style>light-heavy</bar-style>
        </barline>
      </measure>
    </part>
  <part id="P2">
    <measure number="1" width="193.10">
      <print>
        <staff-layout number="1">
          <staff-distance>65.00</staff-distance>
          </staff-layout>
        </print>
      <attributes>
        <divisions>4</divisions>
        <key>
          <fifths>0</fifths>
          </key>
        <time>
          <beats>4</beats>
          <beat-type>4</beat-type>
          </time>
        <clef>
          <sign>percussion</sign>
          <line>2</line>
          </clef>
        </attributes>
      <note default-x="79.21" default-y="-100.00">
        <unpitched>
          <display-step>G</display-step>
          <display-octave>5</display-octave>
          </unpitched>
        <duration>4</duration>
        <instrument id="P2-I43"/>
        <voice>1</voice>
        <type>quarter</type>
        <stem>up</stem>
        <notehead>x</notehead>
        </note>
      <note default-x="107.28" default-y="-100.00">
        <unpitched>
          <display-step>G</display-step>
          <display-octave>5</display-octave>
          </unpitched>
        <duration>4</duration>
        <instrument id="P2-I43"/>
        <voice>1</voice>
        <type>quarter</type>
        <stem>up</stem>
        <notehead>x</notehead>
        </note>
      <note default-x="135.35" default-y="-100.00">
        <unpitched>
          <display-step>G</display-step>
          <display-octave>5</display-octave>
          </unpitched>
        <duration>4</duration>
        <instrument id="P2-I43"/>
        <voice>1</voice>
        <type>quarter</type>
        <stem>up</stem>
        <notehead>x</notehead>
        </note>
      <note default-x="163.43" default-y="-100.00">
        <unpitched>
          <display-step>G</display-step>
          <display-octave>5</display-octave>
          </unpitched>
        <duration>4</duration>
        <instrument id="P2-I43"/>
        <voice>1</voice>
        <type>quarter</type>
        <stem>up</stem>
        <notehead>x</notehead>
        </note>
      </measure>
    <measure number="2" width="138.71">
      <note>
        <rest/>
        <duration>16</duration>
        <voice>1</voice>
        </note>
      </measure>
    <measure number="3" width="135.27">
      <note>
        <rest/>
        <duration>16</duration>
        <voice>1</voice>
        </note>
      </measure>
    <measure number="4" width="170.04">
      <note>
        <rest/>
        <duration>16</duration>
        <voice>1</voice>
        </note>
      </measure>
    <measure number="5" width="166.60">
      <note>
        <rest/>
        <duration>16</duration>
        <voice>1</voice>
        </note>
      </measure>
    <measure number="6" width="159.80">
      <note>
        <rest/>
        <duration>16</duration>
        <voice>1</voice>
        </note>
      </measure>
    <measure number="7" width="329.57">
      <print new-system="yes">
        <staff-layout number="1">
          <staff-distance>65.00</staff-distance>
          </staff-layout>
        </print>
      <note>
        <rest/>
        <duration>16</duration>
        <voice>1</voice>
        </note>
      </measure>
    <measure number="8" width="373.58">
      <note>
        <rest/>
        <duration>16</duration>
        <voice>1</voice>
        </note>
      </measure>
    <measure number="9" width="282.94">
      <note>
        <rest/>
        <duration>16</duration>
        <voice>1</voice>
        </note>
      <barline location="right">
        <bar-style>light-heavy</bar-style>
        </barline>
      </measure>
    </part>
  <part id="P3">
    <measure number="1" width="193.10">
      <print>
        <staff-layout number="1">
          <staff-distance>65.00</staff-distance>
          </staff-layout>
        </print>
      <attributes>
        <divisions>4</divisions>
        <key>
          <fifths>0</fifths>
          </key>
        <time>
          <beats>4</beats>
          <beat-type>4</beat-type>
          </time>
        <clef>
          <sign>percussion</sign>
          <line>2</line>
          </clef>
        <staff-details>
          <staff-lines>1</staff-lines>
          </staff-details>
        </attributes>
      <note>
        <rest/>
        <duration>4</duration>
        <voice>1</voice>
        <type>quarter</type>
        </note>
      <note>
        <rest/>
        <duration>4</duration>
        <voice>1</voice>
        <type>quarter</type>
        </note>
      <note>
        <rest/>
        <duration>4</duration>
        <voice>1</voice>
        <type>quarter</type>
        </note>
      <note>
        <rest/>
        <duration>4</duration>
        <voice>1</voice>
        <type>quarter</type>
        </note>
      </measure>
    <measure number="2" width="138.71">
      <note>
        <rest/>
        <duration>4</duration>
        <voice>1</voice>
        <type>quarter</type>
        </note>
      <note>
        <rest/>
        <duration>4</duration>
        <voice>1</voice>
        <type>quarter</type>
        </note>
      <note default-x="75.02" default-y="-220.00">
        <unpitched>
          <display-step>E</display-step>
          <display-octave>4</display-octave>
          </unpitched>
        <duration>4</duration>
        <instrument id="P3-I36"/>
        <voice>1</voice>
        <type>quarter</type>
        <stem>up</stem>
        </note>
      <note>
        <rest/>
        <duration>4</duration>
        <voice>1</voice>
        <type>quarter</type>
        </note>
      </measure>
    <measure number="3" width="135.27">
      <note>
        <rest/>
        <duration>4</duration>
        <voice>1</voice>
        <type>quarter</type>
        </note>
      <note>
        <rest/>
        <duration>4</duration>
        <voice>1</voice>
        <type>quarter</type>
        </note>
      <note default-x="73.30" default-y="-220.00">
        <unpitched>
          <display-step>E</display-step>
          <display-octave>4</display-octave>
          </unpitched>
        <duration>4</duration>
        <instrument id="P3-I36"/>
        <voice>1</voice>
        <type>quarter</type>
        <stem>up</stem>
        </note>
      <note>
        <rest/>
        <duration>4</duration>
        <voice>1</voice>
        <type>quarter</type>
        <notations>
          <fermata type="upright"/>
          </notations>
        </note>
      </measure>
    <measure number="4" width="170.04">
      <note>
        <rest/>
        <duration>4</duration>
        <voice>1</voice>
        <type>quarter</type>
        </note>
      <note>
        <rest/>
        <duration>4</duration>
        <voice>1</voice>
        <type>quarter</type>
        </note>
      <note>
        <rest/>
        <duration>4</duration>
        <voice>1</voice>
        <type>quarter</type>
        </note>
      <note>
        <rest/>
        <duration>4</duration>
        <voice>1</voice>
        <type>quarter</type>
        </note>
      </measure>
    <measure number="5" width="166.60">
      <note>
        <rest/>
        <duration>4</duration>
        <voice>1</voice>
        <type>quarter</type>
        </note>
      <note>
        <rest/>
        <duration>4</duration>
        <voice>1</voice>
        <type>quarter</type>
        </note>
      <note>
        <rest/>
        <duration>4</duration>
        <voice>1</voice>
        <type>quarter</type>
        </note>
      <note>
        <rest/>
        <duration>4</duration>
        <voice>1</voice>
        <type>quarter</type>
        </note>
      </measure>
    <measure number="6" width="159.80">
      <note>
        <rest/>
        <duration>4</duration>
        <voice>1</voice>
        <type>quarter</type>
        </note>
      <note>
        <rest/>
        <duration>4</duration>
        <voice>1</voice>
        <type>quarter</type>
        </note>
      <note>
        <rest/>
        <duration>4</duration>
        <voice>1</voice>
        <type>quarter</type>
        </note>
      <note>
        <rest/>
        <duration>4</duration>
        <voice>1</voice>
        <type>quarter</type>
        </note>
      </measure>
    <measure number="7" width="329.57">
      <print new-system="yes">
        <staff-layout number="1">
          <staff-distance>65.00</staff-distance>
          </staff-layout>
        </print>
      <note>
        <rest/>
        <duration>4</duration>
        <voice>1</voice>
        <type>quarter</type>
        </note>
      <note>
        <rest/>
        <duration>4</duration>
        <voice>1</voice>
        <type>quarter</type>
        </note>
      <note>
        <rest/>
        <duration>4</duration>
        <voice>1</voice>
        <type>quarter</type>
        </note>
      <note>
        <rest/>
        <duration>4</duration>
        <voice>1</voice>
        <type>quarter</type>
        </note>
      </measure>
    <measure number="8" width="373.58">
      <note>
        <rest/>
        <duration>4</duration>
        <voice>1</voice>
        <type>quarter</type>
        </note>
      <note default-x="107.98" default-y="-220.00">
        <unpitched>
          <display-step>E</display-step>
          <display-octave>4</display-octave>
          </unpitched>
        <duration>2</duration>
        <instrument id="P3-I36"/>
        <voice>1</voice>
        <type>eighth</type>
        <stem>up</stem>
        <beam number="1">begin</beam>
        </note>
      <note default-x="150.22" default-y="-220.00">
        <unpitched>
          <display-step>E</display-step>
          <display-octave>4</display-octave>
          </unpitched>
        <duration>2</duration>
        <instrument id="P3-I36"/>
        <voice>1</voice>
        <type>eighth</type>
        <stem>up</stem>
        <beam number="1">end</beam>
        </note>
      <note>
        <rest/>
        <duration>4</duration>
        <voice>1</voice>
        <type>quarter</type>
        </note>
      <note default-x="287.50" default-y="-220.00">
        <unpitched>
          <display-step>E</display-step>
          <display-octave>4</display-octave>
          </unpitched>
        <duration>2</duration>
        <instrument id="P3-I36"/>
        <voice>1</voice>
        <type>eighth</type>
        <stem>up</stem>
        <beam number="1">begin</beam>
        </note>
      <note default-x="329.74" default-y="-220.00">
        <unpitched>
          <display-step>E</display-step>
          <display-octave>4</display-octave>
          </unpitched>
        <duration>2</duration>
        <instrument id="P3-I36"/>
        <voice>1</voice>
        <type>eighth</type>
        <stem>up</stem>
        <beam number="1">end</beam>
        </note>
      </measure>
    <measure number="9" width="282.94">
      <note>
        <rest/>
        <duration>4</duration>
        <voice>1</voice>
        <type>quarter</type>
        </note>
      <note>
        <rest/>
        <duration>4</duration>
        <voice>1</voice>
        <type>quarter</type>
        </note>
      <note default-x="142.64" default-y="-220.00">
        <unpitched>
          <display-step>E</display-step>
          <display-octave>4</display-octave>
          </unpitched>
        <duration>4</duration>
        <instrument id="P3-I36"/>
        <voice>1</voice>
        <type>quarter</type>
        <stem>up</stem>
        </note>
      <note>
        <rest/>
        <duration>4</duration>
        <voice>1</voice>
        <type>quarter</type>
        </note>
      <barline location="right">
        <bar-style>light-heavy</bar-style>
        </barline>
      </measure>
    </part>
  <part id="P4">
    <measure number="1" width="193.10">
      <print>
        <staff-layout number="1">
          <staff-distance>65.00</staff-distance>
          </staff-layout>
        </print>
      <attributes>
        <divisions>4</divisions>
        <key>
          <fifths>0</fifths>
          </key>
        <time>
          <beats>4</beats>
          <beat-type>4</beat-type>
          </time>
        <clef>
          <sign>percussion</sign>
          <line>2</line>
          </clef>
        <staff-details>
          <staff-lines>1</staff-lines>
          </staff-details>
        </attributes>
      <note>
        <rest/>
        <duration>4</duration>
        <voice>1</voice>
        <type>quarter</type>
        </note>
      <note>
        <rest/>
        <duration>4</duration>
        <voice>1</voice>
        <type>quarter</type>
        </note>
      <note>
        <rest/>
        <duration>4</duration>
        <voice>1</voice>
        <type>quarter</type>
        </note>
      <note>
        <rest/>
        <duration>4</duration>
        <voice>1</voice>
        <type>quarter</type>
        </note>
      </measure>
    <measure number="2" width="138.71">
      <note>
        <rest/>
        <duration>4</duration>
        <voice>1</voice>
        <type>quarter</type>
        </note>
      <note default-x="43.98" default-y="-305.00">
        <unpitched>
          <display-step>E</display-step>
          <display-octave>4</display-octave>
          </unpitched>
        <duration>4</duration>
        <instrument id="P4-I42"/>
        <voice>1</voice>
        <type>quarter</type>
        <stem>up</stem>
        </note>
      <note>
        <rest/>
        <duration>4</duration>
        <voice>1</voice>
        <type>quarter</type>
        </note>
      <note default-x="106.06" default-y="-305.00">
        <unpitched>
          <display-step>E</display-step>
          <display-octave>4</display-octave>
          </unpitched>
        <duration>4</duration>
        <instrument id="P4-I42"/>
        <voice>1</voice>
        <type>quarter</type>
        <stem>up</stem>
        </note>
      </measure>
    <measure number="3" width="135.27">
      <note>
        <rest/>
        <duration>4</duration>
        <voice>1</voice>
        <type>quarter</type>
        </note>
      <note default-x="43.12" default-y="-305.00">
        <unpitched>
          <display-step>E</display-step>
          <display-octave>4</display-octave>
          </unpitched>
        <duration>4</duration>
        <instrument id="P4-I42"/>
        <voice>1</voice>
        <type>quarter</type>
        <stem>up</stem>
        </note>
      <note>
        <rest/>
        <duration>4</duration>
        <voice>1</voice>
        <type>quarter</type>
        </note>
      <note>
        <rest/>
        <duration>4</duration>
        <voice>1</voice>
        <type>quarter</type>
        </note>
      </measure>
    <measure number="4" width="170.04">
      <note>
        <rest/>
        <duration>4</duration>
        <voice>1</voice>
        <type>quarter</type>
        </note>
      <note default-x="47.09" default-y="-305.00">
        <unpitched>
          <display-step>E</display-step>
          <display-octave>4</display-octave>
          </unpitched>
        <duration>2</duration>
        <instrument id="P4-I42"/>
        <voice>1</voice>
        <type>eighth</type>
        <stem>up</stem>
        <beam number="1">begin</beam>
        </note>
      <note default-x="68.43" default-y="-305.00">
        <unpitched>
          <display-step>E</display-step>
          <display-octave>4</display-octave>
          </unpitched>
        <duration>2</duration>
        <instrument id="P4-I42"/>
        <voice>1</voice>
        <type>eighth</type>
        <stem>up</stem>
        <beam number="1">end</beam>
        </note>
      <note>
        <rest/>
        <duration>4</duration>
        <voice>1</voice>
        <type>quarter</type>
        </note>
      <note default-x="123.93" default-y="-305.00">
        <unpitched>
          <display-step>E</display-step>
          <display-octave>4</display-octave>
          </unpitched>
        <duration>2</duration>
        <instrument id="P4-I42"/>
        <voice>1</voice>
        <type>eighth</type>
        <stem>up</stem>
        <beam number="1">begin</beam>
        </note>
      <note default-x="145.27" default-y="-305.00">
        <unpitched>
          <display-step>E</display-step>
          <display-octave>4</display-octave>
          </unpitched>
        <duration>2</duration>
        <instrument id="P4-I42"/>
        <voice>1</voice>
        <type>eighth</type>
        <stem>up</stem>
        <beam number="1">end</beam>
        </note>
      </measure>
    <measure number="5" width="166.60">
      <note>
        <rest/>
        <duration>4</duration>
        <voice>1</voice>
        <type>quarter</type>
        <notations>
          <fermata type="upright"/>
          </notations>
        </note>
      <note default-x="45.08" default-y="-305.00">
        <unpitched>
          <display-step>E</display-step>
          <display-octave>4</display-octave>
          </unpitched>
        <duration>2</duration>
        <instrument id="P4-I42"/>
        <voice>1</voice>
        <type>eighth</type>
        <stem>up</stem>
        <beam number="1">begin</beam>
        </note>
      <note default-x="68.45" default-y="-305.00">
        <unpitched>
          <display-step>E</display-step>
          <display-octave>4</display-octave>
          </unpitched>
        <duration>1</duration>
        <instrument id="P4-I42"/>
        <voice>1</voice>
        <type>16th</type>
        <stem>up</stem>
        <beam number="1">continue</beam>
        <beam number="2">begin</beam>
        </note>
      <note default-x="84.12" default-y="-305.00">
        <unpitched>
          <display-step>E</display-step>
          <display-octave>4</display-octave>
          </unpitched>
        <duration>1</duration>
        <instrument id="P4-I42"/>
        <voice>1</voice>
        <type>16th</type>
        <stem>up</stem>
        <beam number="1">end</beam>
        <beam number="2">end</beam>
        </note>
      <note>
        <rest/>
        <duration>4</duration>
        <voice>1</voice>
        <type>quarter</type>
        </note>
      <note>
        <rest/>
        <duration>4</duration>
        <voice>1</voice>
        <type>quarter</type>
        <notations>
          <fermata type="upright"/>
          </notations>
        </note>
      </measure>
    <measure number="6" width="159.80">
      <note>
        <rest/>
        <duration>4</duration>
        <voice>1</voice>
        <type>quarter</type>
        </note>
      <note default-x="46.04" default-y="-305.00">
        <unpitched>
          <display-step>E</display-step>
          <display-octave>4</display-octave>
          </unpitched>
        <duration>4</duration>
        <instrument id="P4-I42"/>
        <voice>1</voice>
        <type>quarter</type>
        <stem>up</stem>
        </note>
      <note>
        <rest/>
        <duration>4</duration>
        <voice>1</voice>
        <type>quarter</type>
        </note>
      <note default-x="125.10" default-y="-305.00">
        <unpitched>
          <display-step>E</display-step>
          <display-octave>4</display-octave>
          </unpitched>
        <duration>4</duration>
        <instrument id="P4-I42"/>
        <voice>1</voice>
        <type>quarter</type>
        <stem>up</stem>
        </note>
      </measure>
    <measure number="7" width="329.57">
      <print new-system="yes">
        <staff-layout number="1">
          <staff-distance>65.00</staff-distance>
          </staff-layout>
        </print>
      <note>
        <rest/>
        <duration>4</duration>
        <voice>1</voice>
        <type>quarter</type>
        </note>
      <note default-x="117.78" default-y="-305.00">
        <unpitched>
          <display-step>E</display-step>
          <display-octave>4</display-octave>
          </unpitched>
        <duration>4</duration>
        <instrument id="P4-I42"/>
        <voice>1</voice>
        <type>quarter</type>
        <stem>up</stem>
        </note>
      <note>
        <rest/>
        <duration>4</duration>
        <voice>1</voice>
        <type>quarter</type>
        </note>
      <note default-x="263.30" default-y="-305.00">
        <unpitched>
          <display-step>E</display-step>
          <display-octave>4</display-octave>
          </unpitched>
        <duration>4</duration>
        <instrument id="P4-I42"/>
        <voice>1</voice>
        <type>quarter</type>
        <stem>up</stem>
        </note>
      </measure>
    <measure number="8" width="373.58">
      <note>
        <rest/>
        <duration>3</duration>
        <voice>1</voice>
        <type>eighth</type>
        <dot/>
        <notations>
          <fermata type="upright"/>
          </notations>
        </note>
      <note default-x="81.58" default-y="-305.00">
        <unpitched>
          <display-step>E</display-step>
          <display-octave>4</display-octave>
          </unpitched>
        <duration>1</duration>
        <instrument id="P4-I42"/>
        <voice>1</voice>
        <type>16th</type>
        <stem>up</stem>
        </note>
      <note>
        <rest/>
        <duration>2</duration>
        <voice>1</voice>
        <type>eighth</type>
        </note>
      <note>
        <rest/>
        <duration>2</duration>
        <voice>1</voice>
        <type>eighth</type>
        </note>
      <note>
        <rest/>
        <duration>3</duration>
        <voice>1</voice>
        <type>eighth</type>
        <dot/>
        <notations>
          <fermata type="upright"/>
          </notations>
        </note>
      <note default-x="261.10" default-y="-305.00">
        <unpitched>
          <display-step>E</display-step>
          <display-octave>4</display-octave>
          </unpitched>
        <duration>1</duration>
        <instrument id="P4-I42"/>
        <voice>1</voice>
        <type>16th</type>
        <stem>up</stem>
        </note>
      <note>
        <rest/>
        <duration>2</duration>
        <voice>1</voice>
        <type>eighth</type>
        </note>
      <note>
        <rest/>
        <duration>2</duration>
        <voice>1</voice>
        <type>eighth</type>
        </note>
      </measure>
    <measure number="9" width="282.94">
      <note>
        <rest/>
        <duration>4</duration>
        <voice>1</voice>
        <type>quarter</type>
        </note>
      <note default-x="77.79" default-y="-305.00">
        <unpitched>
          <display-step>E</display-step>
          <display-octave>4</display-octave>
          </unpitched>
        <duration>4</duration>
        <instrument id="P4-I42"/>
        <voice>1</voice>
        <type>quarter</type>
        <stem>up</stem>
        </note>
      <note>
        <rest/>
        <duration>4</duration>
        <voice>1</voice>
        <type>quarter</type>
        </note>
      <note>
        <rest/>
        <duration>4</duration>
        <voice>1</voice>
        <type>quarter</type>
        </note>
      <barline location="right">
        <bar-style>light-heavy</bar-style>
        </barline>
      </measure>
    </part>
  <part id="P5">
    <measure number="1" width="193.10">
      <print>
        <staff-layout number="1">
          <staff-distance>65.00</staff-distance>
          </staff-layout>
        </print>
      <attributes>
        <divisions>4</divisions>
        <key>
          <fifths>0</fifths>
          </key>
        <time>
          <beats>4</beats>
          <beat-type>4</beat-type>
          </time>
        <clef>
          <sign>percussion</sign>
          <line>2</line>
          </clef>
        <staff-details>
          <staff-lines>1</staff-lines>
          </staff-details>
        </attributes>
      <note>
        <rest/>
        <duration>4</duration>
        <voice>1</voice>
        <type>quarter</type>
        </note>
      <note>
        <rest/>
        <duration>4</duration>
        <voice>1</voice>
        <type>quarter</type>
        </note>
      <note>
        <rest/>
        <duration>4</duration>
        <voice>1</voice>
        <type>quarter</type>
        </note>
      <note>
        <rest/>
        <duration>4</duration>
        <voice>1</voice>
        <type>quarter</type>
        </note>
      </measure>
    <measure number="2" width="138.71">
      <note default-x="12.94" default-y="-390.00">
        <unpitched>
          <display-step>E</display-step>
          <display-octave>4</display-octave>
          </unpitched>
        <duration>4</duration>
        <instrument id="P5-I40"/>
        <voice>1</voice>
        <type>quarter</type>
        <stem>up</stem>
        </note>
      <note>
        <rest/>
        <duration>4</duration>
        <voice>1</voice>
        <type>quarter</type>
        </note>
      <note>
        <rest/>
        <duration>4</duration>
        <voice>1</voice>
        <type>quarter</type>
        </note>
      <note>
        <rest/>
        <duration>4</duration>
        <voice>1</voice>
        <type>quarter</type>
        </note>
      </measure>
    <measure number="3" width="135.27">
      <note default-x="12.94" default-y="-390.00">
        <unpitched>
          <display-step>E</display-step>
          <display-octave>4</display-octave>
          </unpitched>
        <duration>4</duration>
        <instrument id="P5-I40"/>
        <voice>1</voice>
        <type>quarter</type>
        <stem>up</stem>
        </note>
      <note>
        <rest/>
        <duration>4</duration>
        <voice>1</voice>
        <type>quarter</type>
        </note>
      <note>
        <rest/>
        <duration>4</duration>
        <voice>1</voice>
        <type>quarter</type>
        </note>
      <note>
        <rest/>
        <duration>4</duration>
        <voice>1</voice>
        <type>quarter</type>
        </note>
      </measure>
    <measure number="4" width="170.04">
      <note default-x="12.94" default-y="-390.00">
        <unpitched>
          <display-step>E</display-step>
          <display-octave>4</display-octave>
          </unpitched>
        <duration>4</duration>
        <instrument id="P5-I40"/>
        <voice>1</voice>
        <type>quarter</type>
        <stem>up</stem>
        </note>
      <note>
        <rest/>
        <duration>4</duration>
        <voice>1</voice>
        <type>quarter</type>
        </note>
      <note default-x="89.78" default-y="-390.00">
        <unpitched>
          <display-step>E</display-step>
          <display-octave>4</display-octave>
          </unpitched>
        <duration>4</duration>
        <instrument id="P5-I40"/>
        <voice>1</voice>
        <type>quarter</type>
        <stem>up</stem>
        </note>
      <note>
        <rest/>
        <duration>4</duration>
        <voice>1</voice>
        <type>quarter</type>
        </note>
      </measure>
    <measure number="5" width="166.60">
      <note default-x="12.94" default-y="-390.00">
        <unpitched>
          <display-step>E</display-step>
          <display-octave>4</display-octave>
          </unpitched>
        <duration>4</duration>
        <instrument id="P5-I40"/>
        <voice>1</voice>
        <type>quarter</type>
        <stem>up</stem>
        </note>
      <note>
        <rest/>
        <duration>4</duration>
        <voice>1</voice>
        <type>quarter</type>
        </note>
      <note default-x="100.72" default-y="-390.00">
        <unpitched>
          <display-step>E</display-step>
          <display-octave>4</display-octave>
          </unpitched>
        <duration>4</duration>
        <instrument id="P5-I40"/>
        <voice>1</voice>
        <type>quarter</type>
        <stem>up</stem>
        </note>
      <note>
        <rest/>
        <duration>4</duration>
        <voice>1</voice>
        <type>quarter</type>
        </note>
      </measure>
    <measure number="6" width="159.80">
      <note default-x="12.94" default-y="-390.00">
        <unpitched>
          <display-step>E</display-step>
          <display-octave>4</display-octave>
          </unpitched>
        <duration>4</duration>
        <instrument id="P5-I40"/>
        <voice>1</voice>
        <type>quarter</type>
        <stem>up</stem>
        </note>
      <note>
        <rest/>
        <duration>2</duration>
        <voice>1</voice>
        <type>eighth</type>
        <notations>
          <fermata type="upright"/>
          </notations>
        </note>
      <note default-x="66.72" default-y="-390.00">
        <unpitched>
          <display-step>E</display-step>
          <display-octave>4</display-octave>
          </unpitched>
        <duration>2</duration>
        <instrument id="P5-I40"/>
        <voice>1</voice>
        <type>eighth</type>
        <stem>up</stem>
        </note>
      <note default-x="92.00" default-y="-390.00">
        <unpitched>
          <display-step>E</display-step>
          <display-octave>4</display-octave>
          </unpitched>
        <duration>4</duration>
        <instrument id="P5-I40"/>
        <voice>1</voice>
        <type>quarter</type>
        <stem>up</stem>
        </note>
      <note>
        <rest/>
        <duration>4</duration>
        <voice>1</voice>
        <type>quarter</type>
        </note>
      </measure>
    <measure number="7" width="329.57">
      <print new-system="yes">
        <staff-layout number="1">
          <staff-distance>65.00</staff-distance>
          </staff-layout>
        </print>
      <note default-x="53.11" default-y="-390.00">
        <unpitched>
          <display-step>E</display-step>
          <display-octave>4</display-octave>
          </unpitched>
        <duration>4</duration>
        <instrument id="P5-I40"/>
        <voice>1</voice>
        <type>quarter</type>
        <stem>up</stem>
        </note>
      <note>
        <rest/>
        <duration>2</duration>
        <voice>1</voice>
        <type>eighth</type>
        <notations>
          <fermata type="upright"/>
          </notations>
        </note>
      <note default-x="158.20" default-y="-390.00">
        <unpitched>
          <display-step>E</display-step>
          <display-octave>4</display-octave>
          </unpitched>
        <duration>2</duration>
        <instrument id="P5-I40"/>
        <voice>1</voice>
        <type>eighth</type>
        <stem>up</stem>
        </note>
      <note default-x="198.62" default-y="-390.00">
        <unpitched>
          <display-step>E</display-step>
          <display-octave>4</display-octave>
          </unpitched>
        <duration>4</duration>
        <instrument id="P5-I40"/>
        <voice>1</voice>
        <type>quarter</type>
        <stem>up</stem>
        </note>
      <note>
        <rest/>
        <duration>4</duration>
        <voice>1</voice>
        <type>quarter</type>
        </note>
      </measure>
    <measure number="8" width="373.58">
      <note default-x="12.94" default-y="-390.00">
        <unpitched>
          <display-step>E</display-step>
          <display-octave>4</display-octave>
          </unpitched>
        <duration>4</duration>
        <instrument id="P5-I40"/>
        <voice>1</voice>
        <type>quarter</type>
        <stem>up</stem>
        </note>
      <note>
        <rest/>
        <duration>4</duration>
        <voice>1</voice>
        <type>quarter</type>
        </note>
      <note default-x="192.46" default-y="-390.00">
        <unpitched>
          <display-step>E</display-step>
          <display-octave>4</display-octave>
          </unpitched>
        <duration>4</duration>
        <instrument id="P5-I40"/>
        <voice>1</voice>
        <type>quarter</type>
        <stem>up</stem>
        </note>
      <note>
        <rest/>
        <duration>4</duration>
        <voice>1</voice>
        <type>quarter</type>
        </note>
      </measure>
    <measure number="9" width="282.94">
      <note default-x="12.94" default-y="-390.00">
        <unpitched>
          <display-step>E</display-step>
          <display-octave>4</display-octave>
          </unpitched>
        <duration>4</duration>
        <instrument id="P5-I40"/>
        <voice>1</voice>
        <type>quarter</type>
        <stem>up</stem>
        </note>
      <note>
        <rest/>
        <duration>4</duration>
        <voice>1</voice>
        <type>quarter</type>
        </note>
      <note>
        <rest/>
        <duration>4</duration>
        <voice>1</voice>
        <type>quarter</type>
        </note>
      <note>
        <rest/>
        <duration>4</duration>
        <voice>1</voice>
        <type>quarter</type>
        </note>
      <barline location="right">
        <bar-style>light-heavy</bar-style>
        </barline>
      </measure>
    </part>
  </score-partwise>
